<svg width="60" height="60" viewBox="0 0 60 60" fill="none" xmlns="http://www.w3.org/2000/svg">
<g id="Group 514625">
<circle id="Ellipse 4" cx="30" cy="30" r="30" fill="#B8C6CF"/>
<path id="Vector" d="M40.5131 20.8437C40.2951 20.732 40.0828 20.6097 39.8771 20.477C39.279 20.0853 38.7306 19.6238 38.2437 19.1024C37.0256 17.7218 36.5706 16.3212 36.4031 15.3406H36.4098C36.2698 14.5266 36.3277 14 36.3364 14H30.7881V35.2509C30.7881 35.5363 30.7881 35.8182 30.776 36.0969C30.776 36.1316 30.7727 36.1636 30.7706 36.2009C30.7706 36.2162 30.7706 36.2322 30.7673 36.2482C30.7673 36.2522 30.7673 36.2562 30.7673 36.2602C30.7088 37.0227 30.462 37.7593 30.0487 38.4051C29.6354 39.051 29.0682 39.5863 28.3969 39.964C27.6974 40.3583 26.9061 40.565 26.1013 40.564C23.5163 40.564 21.4212 38.4761 21.4212 35.8976C21.4212 33.319 23.5163 31.2311 26.1013 31.2311C26.5906 31.2307 27.0769 31.307 27.5422 31.4571L27.5489 25.8614C26.1365 25.6807 24.7016 25.7919 23.3348 26.188C21.9679 26.584 20.6988 27.2564 19.6074 28.1626C18.6511 28.9857 17.8471 29.9677 17.2317 31.0645C16.9975 31.4645 16.1138 33.0717 16.0068 35.6803C15.9395 37.1608 16.3884 38.6948 16.6024 39.3287V39.3421C16.737 39.7154 17.2586 40.9893 18.1086 42.0633C18.794 42.9247 19.6038 43.6815 20.5119 44.3092V44.2958L20.5254 44.3092C23.2114 46.1171 26.1895 45.9984 26.1895 45.9984C26.705 45.9777 28.4319 45.9984 30.3931 45.0778C32.5682 44.0572 33.8066 42.5366 33.8066 42.5366C34.5977 41.628 35.2268 40.5926 35.6668 39.4747C36.1688 38.1675 36.3364 36.5995 36.3364 35.9729V24.6988C36.4037 24.7388 37.3002 25.3261 37.3002 25.3261C37.3002 25.3261 38.5917 26.1461 40.6067 26.68C42.0523 27.06 44 27.14 44 27.14V21.6843C43.3176 21.7576 41.9318 21.5443 40.5131 20.8437Z" fill="white"/>
</g>
</svg>
